<svg width="109" height="22" viewBox="0 0 109 22" fill="none" xmlns="http://www.w3.org/2000/svg">
<path d="M13.08 15.746C12.8453 15.9073 12.4933 16.1053 12.024 16.34C11.5693 16.5747 11.0193 16.78 10.374 16.956C9.72867 17.1173 9.02467 17.1907 8.262 17.176C7.01533 17.1613 5.89333 16.9413 4.896 16.516C3.89867 16.076 3.048 15.4893 2.344 14.756C1.65467 14.008 1.12667 13.1573 0.76 12.204C0.393333 11.236 0.21 10.2093 0.21 9.124C0.21 7.90667 0.400667 6.792 0.782 5.78C1.178 4.768 1.72067 3.89533 2.41 3.162C3.114 2.414 3.94267 1.83467 4.896 1.424C5.864 1.01333 6.92733 0.807999 8.086 0.807999C9.098 0.807999 10 0.947332 10.792 1.226C11.5987 1.49 12.2733 1.79067 12.816 2.128L11.804 4.526C11.3933 4.24733 10.88 3.96867 10.264 3.69C9.648 3.41133 8.95133 3.272 8.174 3.272C7.22067 3.272 6.34067 3.52867 5.534 4.042C4.742 4.54067 4.09667 5.22267 3.598 6.088C3.114 6.93867 2.872 7.89933 2.872 8.97C2.872 10.0847 3.092 11.0747 3.532 11.94C3.98667 12.8053 4.61733 13.4873 5.424 13.986C6.24533 14.47 7.21333 14.712 8.328 14.712C9.164 14.712 9.89 14.5873 10.506 14.338C11.122 14.074 11.6207 13.7807 12.002 13.458L13.08 15.746ZM19.9069 17.242C19.0269 17.242 18.2349 17.0587 17.5309 16.692C16.8269 16.3253 16.2622 15.7827 15.8369 15.064C15.4262 14.3453 15.2209 13.4433 15.2209 12.358C15.2209 11.302 15.4335 10.4 15.8589 9.652C16.2989 8.88933 16.8709 8.30267 17.5749 7.892C18.2935 7.48133 19.0709 7.276 19.9069 7.276C20.7722 7.276 21.4689 7.44467 21.9969 7.782C22.5395 8.10467 22.9722 8.49333 23.2949 8.948L23.4709 7.694H25.7369V17H23.2729V15.636C23.1115 15.8267 22.8769 16.0467 22.5689 16.296C22.2609 16.5453 21.8795 16.7653 21.4249 16.956C20.9849 17.1467 20.4789 17.242 19.9069 17.242ZM20.5889 15.218C21.2489 15.218 21.8135 15.042 22.2829 14.69C22.7522 14.338 23.0822 13.854 23.2729 13.238V11.214C23.0969 10.642 22.7595 10.18 22.2609 9.828C21.7622 9.476 21.1755 9.3 20.5009 9.3C19.9875 9.3 19.5182 9.42467 19.0929 9.674C18.6822 9.90867 18.3449 10.2533 18.0809 10.708C17.8315 11.148 17.7069 11.654 17.7069 12.226C17.7069 12.7833 17.8389 13.2893 18.1029 13.744C18.3669 14.1987 18.7115 14.558 19.1369 14.822C19.5769 15.086 20.0609 15.218 20.5889 15.218ZM30.0413 3.602H32.5053V7.694H34.9253V9.63H32.5053V17H30.0413V9.63H28.4353V7.694H30.0413V3.602ZM41.2623 17.242C40.3823 17.242 39.5903 17.0587 38.8863 16.692C38.1823 16.3253 37.6177 15.7827 37.1923 15.064C36.7817 14.3453 36.5763 13.4433 36.5763 12.358C36.5763 11.302 36.789 10.4 37.2143 9.652C37.6543 8.88933 38.2263 8.30267 38.9303 7.892C39.649 7.48133 40.4263 7.276 41.2623 7.276C42.1277 7.276 42.8243 7.44467 43.3523 7.782C43.895 8.10467 44.3277 8.49333 44.6503 8.948L44.8263 7.694H47.0923V17H44.6283V15.636C44.467 15.8267 44.2323 16.0467 43.9243 16.296C43.6163 16.5453 43.235 16.7653 42.7803 16.956C42.3403 17.1467 41.8343 17.242 41.2623 17.242ZM41.9443 15.218C42.6043 15.218 43.169 15.042 43.6383 14.69C44.1077 14.338 44.4377 13.854 44.6283 13.238V11.214C44.4523 10.642 44.115 10.18 43.6163 9.828C43.1177 9.476 42.531 9.3 41.8563 9.3C41.343 9.3 40.8737 9.42467 40.4483 9.674C40.0377 9.90867 39.7003 10.2533 39.4363 10.708C39.187 11.148 39.0623 11.654 39.0623 12.226C39.0623 12.7833 39.1943 13.2893 39.4583 13.744C39.7223 14.1987 40.067 14.558 40.4923 14.822C40.9323 15.086 41.4163 15.218 41.9443 15.218ZM55.1368 21.642C54.3741 21.642 53.7214 21.554 53.1788 21.378C52.6361 21.202 52.1521 20.9747 51.7268 20.696C51.3161 20.4173 50.9274 20.1167 50.5608 19.794L52.0128 18.1C52.4381 18.496 52.8854 18.826 53.3548 19.09C53.8388 19.354 54.4181 19.486 55.0928 19.486C56.0021 19.486 56.7281 19.266 57.2708 18.826C57.8134 18.386 58.0921 17.7773 58.1068 17V15.438C57.8134 15.9513 57.3514 16.384 56.7208 16.736C56.0901 17.0733 55.3274 17.242 54.4328 17.242C53.5821 17.242 52.7974 17.0293 52.0788 16.604C51.3601 16.164 50.7881 15.57 50.3628 14.822C49.9374 14.074 49.7248 13.2307 49.7248 12.292C49.7248 11.324 49.9521 10.466 50.4068 9.718C50.8614 8.95533 51.4554 8.36133 52.1888 7.936C52.9221 7.496 53.7068 7.276 54.5428 7.276C55.3641 7.276 56.0901 7.42267 56.7208 7.716C57.3661 7.99467 57.8354 8.34667 58.1288 8.772L58.3048 7.694H60.5708V17.044C60.5708 17.9093 60.3361 18.6867 59.8668 19.376C59.4121 20.08 58.7741 20.63 57.9528 21.026C57.1314 21.4367 56.1928 21.642 55.1368 21.642ZM52.2108 12.226C52.2108 12.7833 52.3354 13.2893 52.5848 13.744C52.8488 14.1987 53.2008 14.558 53.6408 14.822C54.0954 15.086 54.6014 15.218 55.1588 15.218C55.8921 15.218 56.5081 15.042 57.0068 14.69C57.5201 14.3233 57.8868 13.8467 58.1068 13.26V11.236C57.9161 10.6493 57.5494 10.18 57.0068 9.828C56.4788 9.476 55.8628 9.3 55.1588 9.3C54.3228 9.3 53.6188 9.57133 53.0468 10.114C52.4894 10.6567 52.2108 11.3607 52.2108 12.226ZM63.1955 12.248C63.1955 11.3093 63.4155 10.466 63.8555 9.718C64.3102 8.97 64.9262 8.376 65.7035 7.936C66.4955 7.496 67.4048 7.276 68.4315 7.276C69.4728 7.276 70.3748 7.496 71.1375 7.936C71.9148 8.376 72.5162 8.97 72.9415 9.718C73.3668 10.466 73.5795 11.3093 73.5795 12.248C73.5795 13.1867 73.3668 14.0373 72.9415 14.8C72.5162 15.548 71.9148 16.142 71.1375 16.582C70.3602 17.022 69.4508 17.242 68.4095 17.242C67.3975 17.242 66.4955 17.044 65.7035 16.648C64.9262 16.2373 64.3102 15.658 63.8555 14.91C63.4155 14.162 63.1955 13.2747 63.1955 12.248ZM65.6815 12.27C65.6815 12.8273 65.7988 13.3333 66.0335 13.788C66.2682 14.228 66.5835 14.58 66.9795 14.844C67.3902 15.0933 67.8522 15.218 68.3655 15.218C69.1722 15.218 69.8248 14.9393 70.3235 14.382C70.8222 13.81 71.0715 13.106 71.0715 12.27C71.0715 11.434 70.8222 10.73 70.3235 10.158C69.8248 9.586 69.1722 9.3 68.3655 9.3C67.8522 9.3 67.3902 9.43933 66.9795 9.718C66.5835 9.982 66.2682 10.3413 66.0335 10.796C65.7988 11.236 65.6815 11.7273 65.6815 12.27ZM78.3906 7.694L78.5666 9.85C78.8306 9.322 79.1899 8.86733 79.6446 8.486C80.0993 8.09 80.5613 7.78933 81.0306 7.584C81.5146 7.37867 81.9106 7.276 82.2186 7.276L82.1086 9.74C81.4046 9.68133 80.7886 9.806 80.2606 10.114C79.7473 10.422 79.3439 10.84 79.0506 11.368C78.7719 11.8813 78.6326 12.424 78.6326 12.996V17H76.1686V7.694H78.3906ZM84.7409 7.694H87.2049V17H84.7409V7.694ZM84.6309 4.372C84.6309 3.99067 84.7775 3.67533 85.0709 3.426C85.3789 3.17667 85.7089 3.052 86.0609 3.052C86.3982 3.052 86.7135 3.17667 87.0069 3.426C87.3002 3.67533 87.4469 3.99067 87.4469 4.372C87.4469 4.75333 87.3002 5.06867 87.0069 5.318C86.7135 5.55267 86.3982 5.67 86.0609 5.67C85.7089 5.67 85.3789 5.55267 85.0709 5.318C84.7775 5.06867 84.6309 4.75333 84.6309 4.372ZM95.0286 17.242C93.9286 17.242 92.99 17.0293 92.2126 16.604C91.4353 16.1787 90.8413 15.592 90.4306 14.844C90.02 14.0813 89.8146 13.2233 89.8146 12.27C89.8146 11.346 90.0493 10.51 90.5186 9.762C90.988 8.99933 91.6186 8.398 92.4106 7.958C93.2026 7.50333 94.09 7.276 95.0726 7.276C96.3486 7.276 97.3973 7.65 98.2186 8.398C99.0546 9.13133 99.612 10.1727 99.8906 11.522L92.7406 13.942C93.2686 14.734 94.046 15.13 95.0726 15.13C95.454 15.13 95.8133 15.064 96.1506 14.932C96.5026 14.8 96.84 14.624 97.1626 14.404L98.2846 16.23C97.786 16.538 97.2506 16.7873 96.6786 16.978C96.1066 17.154 95.5566 17.242 95.0286 17.242ZM92.2346 12.138C92.2346 12.2553 92.242 12.38 92.2566 12.512L97.1406 10.774C96.9646 10.3633 96.7006 10.004 96.3486 9.696C95.9966 9.37333 95.5053 9.212 94.8746 9.212C94.0973 9.212 93.4593 9.48333 92.9606 10.026C92.4766 10.5687 92.2346 11.2727 92.2346 12.138ZM105.109 17.198C104.405 17.198 103.73 17.0733 103.085 16.824C102.454 16.5747 101.919 16.208 101.479 15.724L102.535 14.338C102.946 14.734 103.349 15.0273 103.745 15.218C104.156 15.394 104.544 15.482 104.911 15.482C105.322 15.482 105.674 15.4087 105.967 15.262C106.275 15.1007 106.429 14.8367 106.429 14.47C106.429 14.1767 106.326 13.9493 106.121 13.788C105.916 13.612 105.652 13.4727 105.329 13.37C105.006 13.2527 104.669 13.1427 104.317 13.04C103.51 12.7907 102.909 12.424 102.513 11.94C102.117 11.456 101.919 10.8987 101.919 10.268C101.919 9.784 102.044 9.322 102.293 8.882C102.542 8.42733 102.916 8.05333 103.415 7.76C103.928 7.46667 104.581 7.32 105.373 7.32C106.062 7.32 106.671 7.40067 107.199 7.562C107.727 7.72333 108.218 7.98 108.673 8.332L107.727 9.806C107.463 9.55667 107.148 9.366 106.781 9.234C106.429 9.08733 106.106 9.00667 105.813 8.992C105.417 8.97733 105.087 9.058 104.823 9.234C104.559 9.41 104.427 9.64467 104.427 9.938C104.412 10.2313 104.508 10.466 104.713 10.642C104.933 10.818 105.212 10.9573 105.549 11.06C105.886 11.1627 106.224 11.2727 106.561 11.39C107.236 11.61 107.793 11.9253 108.233 12.336C108.673 12.732 108.893 13.2893 108.893 14.008C108.893 14.58 108.754 15.108 108.475 15.592C108.196 16.076 107.778 16.4647 107.221 16.758C106.664 17.0513 105.96 17.198 105.109 17.198Z" fill="black"/>
</svg>
