<svg width="150" height="18" viewBox="0 0 150 18" fill="none" xmlns="http://www.w3.org/2000/svg">
<path d="M13.08 15.746C12.8453 15.9073 12.4933 16.1053 12.024 16.34C11.5693 16.5747 11.0193 16.78 10.374 16.956C9.72867 17.1173 9.02467 17.1907 8.262 17.176C7.01533 17.1613 5.89333 16.9413 4.896 16.516C3.89867 16.076 3.048 15.4893 2.344 14.756C1.65467 14.008 1.12667 13.1573 0.76 12.204C0.393333 11.236 0.21 10.2093 0.21 9.124C0.21 7.90667 0.400667 6.792 0.782 5.78C1.178 4.768 1.72067 3.89533 2.41 3.162C3.114 2.414 3.94267 1.83467 4.896 1.424C5.864 1.01333 6.92733 0.807999 8.086 0.807999C9.098 0.807999 10 0.947332 10.792 1.226C11.5987 1.49 12.2733 1.79067 12.816 2.128L11.804 4.526C11.3933 4.24733 10.88 3.96867 10.264 3.69C9.648 3.41133 8.95133 3.272 8.174 3.272C7.22067 3.272 6.34067 3.52867 5.534 4.042C4.742 4.54067 4.09667 5.22267 3.598 6.088C3.114 6.93867 2.872 7.89933 2.872 8.97C2.872 10.0847 3.092 11.0747 3.532 11.94C3.98667 12.8053 4.61733 13.4873 5.424 13.986C6.24533 14.47 7.21333 14.712 8.328 14.712C9.164 14.712 9.89 14.5873 10.506 14.338C11.122 14.074 11.6207 13.7807 12.002 13.458L13.08 15.746ZM18.9829 17.396C18.1322 17.396 17.4282 17.1393 16.8709 16.626C16.3135 16.098 16.0202 15.4233 15.9909 14.602V7.694H18.4549V13.722C18.4842 14.1913 18.6162 14.5727 18.8509 14.866C19.0855 15.1447 19.4595 15.284 19.9729 15.284C20.7062 15.284 21.3075 14.954 21.7769 14.294C22.2462 13.634 22.4809 12.8053 22.4809 11.808V7.694H24.9449V17H22.7229L22.5469 15.35C22.2535 15.9513 21.7915 16.4427 21.1609 16.824C20.5302 17.2053 19.8042 17.396 18.9829 17.396ZM31.1384 17.198C30.4344 17.198 29.7597 17.0733 29.1144 16.824C28.4837 16.5747 27.9484 16.208 27.5084 15.724L28.5644 14.338C28.9751 14.734 29.3784 15.0273 29.7744 15.218C30.1851 15.394 30.5737 15.482 30.9404 15.482C31.3511 15.482 31.7031 15.4087 31.9964 15.262C32.3044 15.1007 32.4584 14.8367 32.4584 14.47C32.4584 14.1767 32.3557 13.9493 32.1504 13.788C31.9451 13.612 31.6811 13.4727 31.3584 13.37C31.0357 13.2527 30.6984 13.1427 30.3464 13.04C29.5397 12.7907 28.9384 12.424 28.5424 11.94C28.1464 11.456 27.9484 10.8987 27.9484 10.268C27.9484 9.784 28.0731 9.322 28.3224 8.882C28.5717 8.42733 28.9457 8.05333 29.4444 7.76C29.9577 7.46667 30.6104 7.32 31.4024 7.32C32.0917 7.32 32.7004 7.40067 33.2284 7.562C33.7564 7.72333 34.2477 7.98 34.7024 8.332L33.7564 9.806C33.4924 9.55667 33.1771 9.366 32.8104 9.234C32.4584 9.08733 32.1357 9.00667 31.8424 8.992C31.4464 8.97733 31.1164 9.058 30.8524 9.234C30.5884 9.41 30.4564 9.64467 30.4564 9.938C30.4417 10.2313 30.5371 10.466 30.7424 10.642C30.9624 10.818 31.2411 10.9573 31.5784 11.06C31.9157 11.1627 32.2531 11.2727 32.5904 11.39C33.2651 11.61 33.8224 11.9253 34.2624 12.336C34.7024 12.732 34.9224 13.2893 34.9224 14.008C34.9224 14.58 34.7831 15.108 34.5044 15.592C34.2257 16.076 33.8077 16.4647 33.2504 16.758C32.6931 17.0513 31.9891 17.198 31.1384 17.198ZM38.5491 3.602H41.0131V7.694H43.4331V9.63H41.0131V17H38.5491V9.63H36.9431V7.694H38.5491V3.602ZM45.0842 12.248C45.0842 11.3093 45.3042 10.466 45.7442 9.718C46.1988 8.97 46.8148 8.376 47.5922 7.936C48.3842 7.496 49.2935 7.276 50.3202 7.276C51.3615 7.276 52.2635 7.496 53.0262 7.936C53.8035 8.376 54.4048 8.97 54.8302 9.718C55.2555 10.466 55.4682 11.3093 55.4682 12.248C55.4682 13.1867 55.2555 14.0373 54.8302 14.8C54.4048 15.548 53.8035 16.142 53.0262 16.582C52.2488 17.022 51.3395 17.242 50.2982 17.242C49.2862 17.242 48.3842 17.044 47.5922 16.648C46.8148 16.2373 46.1988 15.658 45.7442 14.91C45.3042 14.162 45.0842 13.2747 45.0842 12.248ZM47.5702 12.27C47.5702 12.8273 47.6875 13.3333 47.9222 13.788C48.1568 14.228 48.4722 14.58 48.8682 14.844C49.2788 15.0933 49.7408 15.218 50.2542 15.218C51.0608 15.218 51.7135 14.9393 52.2122 14.382C52.7108 13.81 52.9602 13.106 52.9602 12.27C52.9602 11.434 52.7108 10.73 52.2122 10.158C51.7135 9.586 51.0608 9.3 50.2542 9.3C49.7408 9.3 49.2788 9.43933 48.8682 9.718C48.4722 9.982 48.1568 10.3413 47.9222 10.796C47.6875 11.236 47.5702 11.7273 47.5702 12.27ZM60.2793 7.694L60.4553 9.344C60.8073 8.69867 61.2839 8.19267 61.8853 7.826C62.4866 7.45933 63.1833 7.276 63.9753 7.276C64.7379 7.276 65.3759 7.44467 65.8893 7.782C66.4026 8.11933 66.7179 8.58867 66.8353 9.19C67.2313 8.60333 67.7153 8.14133 68.2873 7.804C68.8739 7.452 69.4899 7.276 70.1353 7.276C71.0593 7.276 71.7853 7.54 72.3133 8.068C72.8559 8.58133 73.1346 9.24867 73.1493 10.07V17H70.7073V11.016C70.6779 10.576 70.5753 10.2093 70.3993 9.916C70.2233 9.608 69.9006 9.43933 69.4313 9.41C68.9033 9.41 68.4486 9.57867 68.0673 9.916C67.6859 10.2387 67.3853 10.664 67.1653 11.192C66.9599 11.7053 66.8573 12.248 66.8573 12.82V17H64.3713V11.016C64.3566 10.576 64.2539 10.2093 64.0633 9.916C63.8726 9.608 63.5353 9.43933 63.0513 9.41C62.5379 9.41 62.0906 9.57867 61.7093 9.916C61.3279 10.2387 61.0346 10.664 60.8293 11.192C60.6239 11.7053 60.5213 12.248 60.5213 12.82V17H58.0573V7.694H60.2793ZM80.9778 17.242C79.8778 17.242 78.9392 17.0293 78.1618 16.604C77.3845 16.1787 76.7905 15.592 76.3798 14.844C75.9692 14.0813 75.7638 13.2233 75.7638 12.27C75.7638 11.346 75.9985 10.51 76.4678 9.762C76.9372 8.99933 77.5678 8.398 78.3598 7.958C79.1518 7.50333 80.0392 7.276 81.0218 7.276C82.2978 7.276 83.3465 7.65 84.1678 8.398C85.0038 9.13133 85.5612 10.1727 85.8398 11.522L78.6898 13.942C79.2178 14.734 79.9952 15.13 81.0218 15.13C81.4032 15.13 81.7625 15.064 82.0998 14.932C82.4518 14.8 82.7892 14.624 83.1118 14.404L84.2338 16.23C83.7352 16.538 83.1998 16.7873 82.6278 16.978C82.0558 17.154 81.5058 17.242 80.9778 17.242ZM78.1838 12.138C78.1838 12.2553 78.1912 12.38 78.2058 12.512L83.0898 10.774C82.9138 10.3633 82.6498 10.004 82.2978 9.696C81.9458 9.37333 81.4545 9.212 80.8238 9.212C80.0465 9.212 79.4085 9.48333 78.9098 10.026C78.4258 10.5687 78.1838 11.2727 78.1838 12.138ZM90.4863 7.694L90.6623 9.85C90.9263 9.322 91.2856 8.86733 91.7403 8.486C92.195 8.09 92.657 7.78933 93.1263 7.584C93.6103 7.37867 94.0063 7.276 94.3143 7.276L94.2043 9.74C93.5003 9.68133 92.8843 9.806 92.3563 10.114C91.843 10.422 91.4396 10.84 91.1463 11.368C90.8676 11.8813 90.7283 12.424 90.7283 12.996V17H88.2643V7.694H90.4863ZM116.269 15.746C116.035 15.9073 115.683 16.1053 115.213 16.34C114.759 16.5747 114.209 16.78 113.563 16.956C112.918 17.1173 112.214 17.1907 111.451 17.176C110.205 17.1613 109.083 16.9413 108.085 16.516C107.088 16.076 106.237 15.4893 105.533 14.756C104.844 14.008 104.316 13.1573 103.949 12.204C103.583 11.236 103.399 10.2093 103.399 9.124C103.399 7.90667 103.59 6.792 103.971 5.78C104.367 4.768 104.91 3.89533 105.599 3.162C106.303 2.414 107.132 1.83467 108.085 1.424C109.053 1.01333 110.117 0.807999 111.275 0.807999C112.287 0.807999 113.189 0.947332 113.981 1.226C114.788 1.49 115.463 1.79067 116.005 2.128L114.993 4.526C114.583 4.24733 114.069 3.96867 113.453 3.69C112.837 3.41133 112.141 3.272 111.363 3.272C110.41 3.272 109.53 3.52867 108.723 4.042C107.931 4.54067 107.286 5.22267 106.787 6.088C106.303 6.93867 106.061 7.89933 106.061 8.97C106.061 10.0847 106.281 11.0747 106.721 11.94C107.176 12.8053 107.807 13.4873 108.613 13.986C109.435 14.47 110.403 14.712 111.517 14.712C112.353 14.712 113.079 14.5873 113.695 14.338C114.311 14.074 114.81 13.7807 115.191 13.458L116.269 15.746ZM123.096 17.242C122.216 17.242 121.424 17.0587 120.72 16.692C120.016 16.3253 119.452 15.7827 119.026 15.064C118.616 14.3453 118.41 13.4433 118.41 12.358C118.41 11.302 118.623 10.4 119.048 9.652C119.488 8.88933 120.06 8.30267 120.764 7.892C121.483 7.48133 122.26 7.276 123.096 7.276C123.962 7.276 124.658 7.44467 125.186 7.782C125.729 8.10467 126.162 8.49333 126.484 8.948L126.66 7.694H128.926V17H126.462V15.636C126.301 15.8267 126.066 16.0467 125.758 16.296C125.45 16.5453 125.069 16.7653 124.614 16.956C124.174 17.1467 123.668 17.242 123.096 17.242ZM123.778 15.218C124.438 15.218 125.003 15.042 125.472 14.69C125.942 14.338 126.272 13.854 126.462 13.238V11.214C126.286 10.642 125.949 10.18 125.45 9.828C124.952 9.476 124.365 9.3 123.69 9.3C123.177 9.3 122.708 9.42467 122.282 9.674C121.872 9.90867 121.534 10.2533 121.27 10.708C121.021 11.148 120.896 11.654 120.896 12.226C120.896 12.7833 121.028 13.2893 121.292 13.744C121.556 14.1987 121.901 14.558 122.326 14.822C122.766 15.086 123.25 15.218 123.778 15.218ZM134.551 7.694L134.727 9.85C134.991 9.322 135.35 8.86733 135.805 8.486C136.259 8.09 136.721 7.78933 137.191 7.584C137.675 7.37867 138.071 7.276 138.379 7.276L138.269 9.74C137.565 9.68133 136.949 9.806 136.421 10.114C135.907 10.422 135.504 10.84 135.211 11.368C134.932 11.8813 134.793 12.424 134.793 12.996V17H132.329V7.694H134.551ZM144.937 17.242C143.837 17.242 142.898 17.0293 142.121 16.604C141.343 16.1787 140.749 15.592 140.339 14.844C139.928 14.0813 139.723 13.2233 139.723 12.27C139.723 11.346 139.957 10.51 140.427 9.762C140.896 8.99933 141.527 8.398 142.319 7.958C143.111 7.50333 143.998 7.276 144.981 7.276C146.257 7.276 147.305 7.65 148.127 8.398C148.963 9.13133 149.52 10.1727 149.799 11.522L142.649 13.942C143.177 14.734 143.954 15.13 144.981 15.13C145.362 15.13 145.721 15.064 146.059 14.932C146.411 14.8 146.748 14.624 147.071 14.404L148.193 16.23C147.694 16.538 147.159 16.7873 146.587 16.978C146.015 17.154 145.465 17.242 144.937 17.242ZM142.143 12.138C142.143 12.2553 142.15 12.38 142.165 12.512L147.049 10.774C146.873 10.3633 146.609 10.004 146.257 9.696C145.905 9.37333 145.413 9.212 144.783 9.212C144.005 9.212 143.367 9.48333 142.869 10.026C142.385 10.5687 142.143 11.2727 142.143 12.138Z" fill="black"/>
</svg>
