<svg width="59" height="22" viewBox="0 0 59 22" fill="none" xmlns="http://www.w3.org/2000/svg">
<path d="M4.732 0.983999C6.56533 0.983999 7.988 1.43867 9 2.348C10.0267 3.25733 10.54 4.51867 10.54 6.132C10.54 6.76267 10.4447 7.39333 10.254 8.024C10.0633 8.65467 9.748 9.22667 9.308 9.74C8.88267 10.2533 8.32533 10.664 7.636 10.972C6.94667 11.28 6.096 11.434 5.084 11.434H2.774V17H0.2V0.983999H4.732ZM5.084 8.97C5.832 8.97 6.41867 8.80867 6.844 8.486C7.26933 8.16333 7.56267 7.782 7.724 7.342C7.9 6.902 7.988 6.51333 7.988 6.176C7.988 5.83867 7.90733 5.45733 7.746 5.032C7.59933 4.592 7.32067 4.218 6.91 3.91C6.49933 3.602 5.91267 3.448 5.15 3.448H2.774V8.97H5.084ZM17.0592 17.242C16.1792 17.242 15.3872 17.0587 14.6832 16.692C13.9792 16.3253 13.4146 15.7827 12.9892 15.064C12.5786 14.3453 12.3732 13.4433 12.3732 12.358C12.3732 11.302 12.5859 10.4 13.0112 9.652C13.4512 8.88933 14.0232 8.30267 14.7272 7.892C15.4459 7.48133 16.2232 7.276 17.0592 7.276C17.9246 7.276 18.6212 7.44467 19.1492 7.782C19.6919 8.10467 20.1246 8.49333 20.4472 8.948L20.6232 7.694H22.8892V17H20.4252V15.636C20.2639 15.8267 20.0292 16.0467 19.7212 16.296C19.4132 16.5453 19.0319 16.7653 18.5772 16.956C18.1372 17.1467 17.6312 17.242 17.0592 17.242ZM17.7412 15.218C18.4012 15.218 18.9659 15.042 19.4352 14.69C19.9046 14.338 20.2346 13.854 20.4252 13.238V11.214C20.2492 10.642 19.9119 10.18 19.4132 9.828C18.9146 9.476 18.3279 9.3 17.6532 9.3C17.1399 9.3 16.6706 9.42467 16.2452 9.674C15.8346 9.90867 15.4972 10.2533 15.2332 10.708C14.9839 11.148 14.8592 11.654 14.8592 12.226C14.8592 12.7833 14.9912 13.2893 15.2552 13.744C15.5192 14.1987 15.8639 14.558 16.2892 14.822C16.7292 15.086 17.2132 15.218 17.7412 15.218ZM30.9337 21.642C30.171 21.642 29.5183 21.554 28.9757 21.378C28.433 21.202 27.949 20.9747 27.5237 20.696C27.113 20.4173 26.7243 20.1167 26.3577 19.794L27.8097 18.1C28.235 18.496 28.6823 18.826 29.1517 19.09C29.6357 19.354 30.215 19.486 30.8897 19.486C31.799 19.486 32.525 19.266 33.0677 18.826C33.6103 18.386 33.889 17.7773 33.9037 17V15.438C33.6103 15.9513 33.1483 16.384 32.5177 16.736C31.887 17.0733 31.1243 17.242 30.2297 17.242C29.379 17.242 28.5943 17.0293 27.8757 16.604C27.157 16.164 26.585 15.57 26.1597 14.822C25.7343 14.074 25.5217 13.2307 25.5217 12.292C25.5217 11.324 25.749 10.466 26.2037 9.718C26.6583 8.95533 27.2523 8.36133 27.9857 7.936C28.719 7.496 29.5037 7.276 30.3397 7.276C31.161 7.276 31.887 7.42267 32.5177 7.716C33.163 7.99467 33.6323 8.34667 33.9257 8.772L34.1017 7.694H36.3677V17.044C36.3677 17.9093 36.133 18.6867 35.6637 19.376C35.209 20.08 34.571 20.63 33.7497 21.026C32.9283 21.4367 31.9897 21.642 30.9337 21.642ZM28.0077 12.226C28.0077 12.7833 28.1323 13.2893 28.3817 13.744C28.6457 14.1987 28.9977 14.558 29.4377 14.822C29.8923 15.086 30.3983 15.218 30.9557 15.218C31.689 15.218 32.305 15.042 32.8037 14.69C33.317 14.3233 33.6837 13.8467 33.9037 13.26V11.236C33.713 10.6493 33.3463 10.18 32.8037 9.828C32.2757 9.476 31.6597 9.3 30.9557 9.3C30.1197 9.3 29.4157 9.57133 28.8437 10.114C28.2863 10.6567 28.0077 11.3607 28.0077 12.226ZM44.2064 17.242C43.1064 17.242 42.1677 17.0293 41.3904 16.604C40.613 16.1787 40.019 15.592 39.6084 14.844C39.1977 14.0813 38.9924 13.2233 38.9924 12.27C38.9924 11.346 39.227 10.51 39.6964 9.762C40.1657 8.99933 40.7964 8.398 41.5884 7.958C42.3804 7.50333 43.2677 7.276 44.2504 7.276C45.5264 7.276 46.575 7.65 47.3964 8.398C48.2324 9.13133 48.7897 10.1727 49.0684 11.522L41.9184 13.942C42.4464 14.734 43.2237 15.13 44.2504 15.13C44.6317 15.13 44.991 15.064 45.3284 14.932C45.6804 14.8 46.0177 14.624 46.3404 14.404L47.4624 16.23C46.9637 16.538 46.4284 16.7873 45.8564 16.978C45.2844 17.154 44.7344 17.242 44.2064 17.242ZM41.4124 12.138C41.4124 12.2553 41.4197 12.38 41.4344 12.512L46.3184 10.774C46.1424 10.3633 45.8784 10.004 45.5264 9.696C45.1744 9.37333 44.683 9.212 44.0524 9.212C43.275 9.212 42.637 9.48333 42.1384 10.026C41.6544 10.5687 41.4124 11.2727 41.4124 12.138ZM54.2868 17.198C53.5828 17.198 52.9082 17.0733 52.2628 16.824C51.6322 16.5747 51.0968 16.208 50.6568 15.724L51.7128 14.338C52.1235 14.734 52.5268 15.0273 52.9228 15.218C53.3335 15.394 53.7222 15.482 54.0888 15.482C54.4995 15.482 54.8515 15.4087 55.1448 15.262C55.4528 15.1007 55.6068 14.8367 55.6068 14.47C55.6068 14.1767 55.5042 13.9493 55.2988 13.788C55.0935 13.612 54.8295 13.4727 54.5068 13.37C54.1842 13.2527 53.8468 13.1427 53.4948 13.04C52.6882 12.7907 52.0868 12.424 51.6908 11.94C51.2948 11.456 51.0968 10.8987 51.0968 10.268C51.0968 9.784 51.2215 9.322 51.4708 8.882C51.7202 8.42733 52.0942 8.05333 52.5928 7.76C53.1062 7.46667 53.7588 7.32 54.5508 7.32C55.2402 7.32 55.8488 7.40067 56.3768 7.562C56.9048 7.72333 57.3962 7.98 57.8508 8.332L56.9048 9.806C56.6408 9.55667 56.3255 9.366 55.9588 9.234C55.6068 9.08733 55.2842 9.00667 54.9908 8.992C54.5948 8.97733 54.2648 9.058 54.0008 9.234C53.7368 9.41 53.6048 9.64467 53.6048 9.938C53.5902 10.2313 53.6855 10.466 53.8908 10.642C54.1108 10.818 54.3895 10.9573 54.7268 11.06C55.0642 11.1627 55.4015 11.2727 55.7388 11.39C56.4135 11.61 56.9708 11.9253 57.4108 12.336C57.8508 12.732 58.0708 13.2893 58.0708 14.008C58.0708 14.58 57.9315 15.108 57.6528 15.592C57.3742 16.076 56.9562 16.4647 56.3988 16.758C55.8415 17.0513 55.1375 17.198 54.2868 17.198Z" fill="black"/>
</svg>
